<?xml version="1.0" standalone="no"?>
<!DOCTYPE svg PUBLIC "-//W3C//DTD SVG 20010904//EN"
 "http://www.w3.org/TR/2001/REC-SVG-20010904/DTD/svg10.dtd">
<svg version="1.0" xmlns="http://www.w3.org/2000/svg"
 width="700.000000pt" height="700.000000pt" viewBox="0 0 700.000000 700.000000"
 preserveAspectRatio="xMidYMid meet">
<metadata>
Created by potrace 1.11, written by Peter Selinger 2001-2013
</metadata>
<g transform="translate(0.000000,700.000000) scale(0.100000,-0.100000)"
fill="#000000" stroke="none">
<path d="M1599 6996 c-2 -2 -29 -6 -59 -10 -282 -31 -595 -152 -810 -312 -25
-19 -58 -44 -75 -56 -51 -39 -213 -200 -263 -263 -126 -158 -232 -349 -296
-533 -20 -57 -38 -113 -40 -125 -25 -119 -38 -192 -44 -242 -9 -80 -9 -3821 0
-3910 4 -38 10 -81 13 -95 3 -14 10 -50 16 -80 30 -158 145 -431 241 -574 76
-112 165 -220 249 -301 108 -103 134 -124 249 -200 238 -158 497 -251 785
-284 100 -12 3801 -13 3870 -1 28 4 72 11 99 14 44 6 74 13 207 46 67 17 200
70 292 116 449 224 785 639 910 1124 14 52 28 118 32 145 4 28 10 61 13 75 10
41 12 3851 2 3910 -5 30 -11 75 -14 100 -32 249 -176 573 -355 800 -95 120
-304 313 -391 361 -17 9 -37 22 -45 29 -22 19 -89 55 -185 101 -128 62 -303
117 -457 143 l-138 24 -1901 1 c-1046 0 -1903 -1 -1905 -3z"/>
</g>
</svg>
