<svg xmlns="http://www.w3.org/2000/svg" xmlns:xlink="http://www.w3.org/1999/xlink">
    <symbol class="icon-cat" viewBox="0 0 100 106" fill="none" id="slim-cat">

    <circle cx="50" cy="56" r="50" fill="#68B738"/>
    <g clip-path="url(#clip0)">
    <path d="M69.84 0H69.46C68.818 0.362938 68.307 0.919413 68 1.59C67.4377 2.67211 67.0047 3.81665 66.71 5C66.6468 5.35582 66.4671 5.68054 66.1992 5.92311C65.9313 6.16567 65.5903 6.31232 65.23 6.34C64.1279 6.52999 63.0837 6.96931 62.1773 7.62443C61.2709 8.27955 60.5262 9.13313 60 10.12C59.2766 11.4013 58.6579 12.739 58.15 14.12C56.73 17.8 55.64 21.6 54.3 25.31C53.67 27 53.64 27 51.74 27C49.47 27 49.63 26.65 49.6 29.15C49.6 29.94 49.84 30.34 50.68 30.3C50.94 30.3 51.33 30.17 51.43 30.51C51.53 30.85 51.19 31 50.99 31.2C49.8043 32.4036 48.3037 33.2492 46.66 33.64C44.76 34.15 42.82 34.55 40.97 35.17C36.22 36.76 31.83 38.98 28.41 42.74C26.4103 45.0754 24.8088 47.7242 23.67 50.58C20 59.22 18.22 68.32 16.84 77.51C16.19 81.82 15.73 86.15 15.38 90.51C15.2 92.65 15 94.82 15 97H48.33C48.3853 96.5599 48.3051 96.1133 48.1 95.72C47.7794 94.9221 47.2586 94.2204 46.5877 93.6827C45.9167 93.1449 45.1185 92.7892 44.27 92.65C43.57 92.49 43.49 92.28 43.92 91.73C44.6214 90.7939 45.159 89.7458 45.51 88.63C47.14 83.82 47.77 78.8 48.56 73.83C49.0063 70.0338 50.1739 66.3579 52 63C53.4244 60.5284 55.3243 58.3634 57.59 56.63C58.42 56 58.45 56 58.59 57.07C58.69 57.78 58.71 58.51 58.76 59.23C59.0601 63.9544 58.9999 68.6948 58.58 73.41C58.2024 77.0649 58.1522 80.7462 58.43 84.41C58.8275 88.6636 59.5869 92.8755 60.7 97H74C73.8264 95.9175 73.328 94.9132 72.5708 94.1203C71.8136 93.3274 70.8334 92.7833 69.76 92.56C68.5066 92.3608 67.2252 92.429 66 92.76C65.4 92.9 65.15 92.76 65.1 92.11C64.6863 86.8159 65.0229 81.4899 66.1 76.29C67.4338 70.287 68.4552 64.2189 69.16 58.11C69.4224 55.643 70.1992 53.2584 71.44 51.11C72.63 48.99 73.67 46.79 74.84 44.66C75.3045 43.8855 75.5841 43.0143 75.657 42.1141C75.7298 41.2139 75.594 40.3091 75.26 39.47C74.99 38.76 74.73 38.04 74.4 37.36C73.4 35.41 72.4 33.48 71.48 31.51C70.99 30.51 71.1 30.39 72.19 30.36C73.82 30.36 73.82 30.36 73.85 28.72C73.85 28.5 73.85 28.28 73.85 28.06C73.85 27.37 73.59 26.99 72.85 27.06C72.35 27.06 71.85 27.06 71.33 27.06C70.64 27.06 70.44 26.77 70.61 26.06C70.9473 24.9058 71.611 23.8737 72.5211 23.0877C73.4312 22.3018 74.549 21.7956 75.74 21.63C77.9557 21.4379 80.1878 21.5829 82.36 22.06C82.6107 22.139 82.8823 22.1161 83.1162 21.9963C83.3502 21.8766 83.5275 21.6695 83.61 21.42C84.01 20.42 84.45 19.42 84.9 18.42C85.002 18.2426 85.0471 18.0381 85.0292 17.8343C85.0113 17.6304 84.9313 17.437 84.8 17.28C81.6 13.22 78.13 9.43 73.4 7C73.1715 6.90163 72.9712 6.7476 72.8175 6.55196C72.6638 6.35633 72.5615 6.12531 72.52 5.88C72.2523 4.45051 71.8264 3.05525 71.25 1.72C70.9795 1.00861 70.4845 0.404782 69.84 0V0Z" fill="black"/>
    </g>
    <defs>
    <clipPath id="clip0">
    <rect width="70" height="97" fill="white" transform="translate(15)"/>
    </clipPath>
    </defs>
</symbol>
    <symbol viewBox="0 0 67 50" fill="none" id="fat-cat">
      <circle cx="34.5" cy="25" r="25" fill="#68B738"/>
      <g clip-path="url(#clip0)">
      <path d="M61.55 13.9C62.1272 12.9815 62.8944 12.1973 63.8 11.6C64.3 11.25 64.6 11.25 64.9 11.9C65.3 12.85 65.65 13.85 65.35 14.9C65.2954 15.0781 65.2851 15.2668 65.3199 15.4497C65.3548 15.6327 65.4338 15.8044 65.55 15.95C65.85 16.35 66.1 16.75 66.35 17.1C66.6902 17.5319 66.9109 18.0456 66.9899 18.5897C67.0689 19.1339 67.0034 19.6892 66.8 20.2C66.6164 20.6959 66.5817 21.2346 66.7 21.75C66.7999 22.245 66.7999 22.755 66.7 23.25C66.6596 23.6207 66.5095 23.9709 66.2691 24.2559C66.0286 24.5409 65.7086 24.7478 65.35 24.85C64.7104 24.9717 64.1396 25.3284 63.75 25.85C63.7028 25.9268 63.6365 25.9901 63.5577 26.0339C63.4789 26.0777 63.3901 26.1005 63.3 26.1C62.7 26.2 61.2 24.85 61.2 24.25V23.95C61.25 22.15 61.15 22 59.5 21.25C59.1546 21.1282 58.8452 20.9219 58.6 20.65C58.3 20.25 57.9 20.3 57.45 20.45C57 20.6 56.75 20.9 56.8 21.4C56.9508 22.6104 57.0009 23.8313 56.95 25.05C56.9533 25.1891 56.9875 25.3257 57.05 25.45C58.6 27.7 59.2 30.35 59.95 32.9C60.55 34.85 61.65 35.9 63.65 36.05C63.97 36.0755 64.2876 36.1257 64.6 36.2C65.0109 36.266 65.3926 36.4538 65.6956 36.739C65.9987 37.0242 66.2092 37.3938 66.3 37.8C66.65 38.85 66.45 39.1 65.4 39.1H62.15C61.7292 39.1213 61.3167 38.9778 61 38.7C60.4939 38.2729 59.9191 37.9348 59.3 37.7C58.6155 37.4473 58.0231 36.9943 57.6 36.4C57.0143 35.5817 56.3439 34.8275 55.6 34.15C54.2 32.7 52.7 31.3 51.4 29.8C50.4103 28.7779 49.8395 27.4221 49.8 26C49.8 25.55 49.7 25.35 49.2 25.55C49.0503 25.645 48.8773 25.6969 48.7 25.7C47.3 25.7 46.6 26.55 46.1 27.8C45.65 28.85 45.05 29.85 44.5 30.9C44.1881 31.5572 44.0178 32.2727 44 33C44 34.2 44.3 34.6 45.4 35C46.1 35.25 46.75 35.5 47.1 36.2C47.5 37 47.4 37.2 46.55 37.25H43.15C42.954 37.2694 42.7568 37.2267 42.5864 37.1281C42.4159 37.0294 42.2807 36.8796 42.2 36.7L41.3 35.2C41.0347 34.8086 40.8648 34.3605 40.8041 33.8916C40.7433 33.4227 40.7932 32.9461 40.95 32.5C41.1664 31.6317 41.1835 30.7258 41 29.85C40.8739 29.24 40.8848 28.6097 41.0318 28.0045C41.1788 27.3993 41.4582 26.8342 41.85 26.35C42.15 26 42.15 25.85 41.65 25.75C39.6054 25.3157 37.6233 24.627 35.75 23.7C35.7367 23.7 35.724 23.6947 35.7146 23.6853C35.7052 23.676 35.7 23.6632 35.7 23.65C34.1 23.05 33.8 23.15 33.35 24.8C32.95 26.2 32.55 27.6 32.25 29.05C31.9 30.65 32.3 32.15 32.8 33.65C33 34.25 33.6 34.2 34.05 34.35C35.05 34.65 35.9 35.05 36.3 36.1C36.65 36.9 36.6 37 35.75 37C34.9 37 34.05 36.95 33.15 37C32.3905 37.0137 31.6493 36.7667 31.05 36.3C28.65 34.7 27.95 32.25 27.75 29.6C27.65 27.95 26.75 26.65 25.7 25.4C25.5 25.15 25.3 25.05 25 25.25C23.9267 25.8418 22.8062 26.3435 21.65 26.75C19.2371 27.602 17.1198 29.1292 15.55 31.15C14.9638 31.8875 14.5842 32.7675 14.45 33.7C14.3 34.6 14.55 35 15.45 35.25C16.35 35.5 16.8 36 16.9 36.95C16.95 37.35 16.8 37.55 16.4 37.55H12.35C12.2174 37.5406 12.0891 37.4993 11.9759 37.4297C11.8628 37.36 11.7681 37.2641 11.7 37.15C11.0719 36.3724 10.7358 35.3995 10.75 34.4C10.7237 32.6724 10.8745 30.9468 11.2 29.25C11.2667 28.7418 11.4564 28.2576 11.7527 27.8394C12.0489 27.4212 12.4427 27.0815 12.9 26.85C15.85 25.45 17.4 22.8 18.8 20.05C19.1 19.5 18.85 19.4 18.35 19.45C16.9506 19.6442 15.6248 20.1952 14.5 21.05C13.0271 22.1244 11.6396 23.3113 10.35 24.6C8.9748 25.9968 7.15133 26.8643 5.19998 27.05C1.54998 27.25 -0.150021 25.2 -2.12286e-05 21.9C0.03351 20.7748 0.457802 19.6964 1.19998 18.85C1.45799 18.5155 1.80985 18.2655 2.21061 18.1319C2.61138 17.9983 3.04287 17.9872 3.44998 18.1C4.19998 18.3 4.39998 18.7 4.09998 19.45C3.94998 19.75 3.74998 20 3.59998 20.3C3.38428 20.6065 3.21574 20.9435 3.09998 21.3C2.54998 22.8 3.29998 23.85 4.84998 24C6.49998 24.15 7.84998 23.45 9.09998 22.45C10.6059 21.2441 11.9503 19.8493 13.1 18.3C13.9596 17.1687 15.042 16.2256 16.2804 15.529C17.5188 14.8325 18.8868 14.3971 20.3 14.25C21.45 14.1 22.45 13.6 23.55 13.3C25.6072 12.6728 27.7495 12.3692 29.9 12.4C30.896 12.4415 31.8883 12.2533 32.8 11.85C35.25 10.85 37.8 10.85 40.35 11.35C42.35 11.75 44.35 12.25 46.3 12.75C47.4605 12.9662 48.6537 12.9321 49.8 12.65C51.9943 12.0937 54.2389 11.7587 56.5 11.65C57.9812 11.5779 59.4576 11.8697 60.8 12.5C61.8 12.95 61.8 12.95 61.55 13.9Z" fill="black"/>
      </g>
      <defs>
      <clipPath id="clip0">
      <rect width="67" height="28" fill="white" transform="translate(0 11)"/>
      </clipPath>
      </defs>
    </symbol>
    <symbol  viewBox="0 0 27 34" id="icon__html-academy">
      <path d="M13.6426 0.0157537L13.5 0L0 1.40733V26.0129L13.5 34L27 26.0129V1.40733L13.6426 0.0157537ZM25.2344 25.0151L13.5 31.9573L1.76561 25.0151V14.9293L13.4507 21.8451L13.4701 23.0984L5.45351 18.3548L5.44295 19.5801L13.4894 24.3885L13.5088 25.675L5.46408 20.9174L5.45351 22.1427L13.5 26.9511L21.6239 22.1182V20.8929V16.909L25.2432 14.7595L25.2344 25.0151ZM25.2344 13.4519L22.0147 15.3319L20.5325 16.2071L13.4666 12.0201L13.456 13.2454L19.4957 16.818L19.4429 16.8495L19.3126 16.9247L18.4536 17.4166L13.4666 14.4689L13.456 15.6942L17.3921 18.0222L16.4591 18.6314L16.438 18.6436L13.4666 16.902L13.456 18.1273L15.4029 19.2615L13.4155 20.4483L1.7973 13.5762L13.4349 6.61831L25.2344 13.4519ZM25.2344 12.2266L13.4401 5.31075L1.76561 12.2196V2.9897L13.5 1.76442L25.2344 2.9897V12.2266Z"/>
      </symbol>

      <sumbol width="19" height="15" viewBox="0 0 19 15" fill="none" xmlns="http://www.w3.org/2000/svg" id="icon-vector">
<path d="M7 11.718L1.3 5.26951L0.25 6.45739L7 14.0938L18.25 1.36648L17.2 0.09375L7 11.718Z" fill="#68B738"/>
    </symbol>

    </svg>
